<?xml version="1.0" standalone="no"?><!DOCTYPE svg PUBLIC "-//W3C//DTD SVG 1.1//EN" "http://www.w3.org/Graphics/SVG/1.1/DTD/svg11.dtd"><svg t="1534652621725" class="icon" style="" viewBox="0 0 1024 1024" version="1.1" xmlns="http://www.w3.org/2000/svg" xmlns:xlink="http://www.w3.org/1999/xlink" width="200" height="200"><defs><style type="text/css"></style></defs><path d="M994.54 169.83a27.79 27.79 0 0 0-36.13 15.46L907.26 313C831 148.8 667.39 42.17 481.83 42.17 222.77 42.17 12 252.94 12 512s210.77 469.83 469.83 469.83c207.62 0 388.1-133.27 449.08-331.65a27.78 27.78 0 1 0-53.11-16.33C824 808.76 664.9 926.27 481.83 926.27 253.4 926.27 67.55 740.43 67.55 512S253.4 97.73 481.83 97.73c164.65 0 309.65 95.22 376.34 241.59L724.09 285.6a27.79 27.79 0 1 0-20.67 51.59l193.11 77.34a27.83 27.83 0 0 0 36.13-15.46L1010 206a27.81 27.81 0 0 0-15.46-36.17z"></path></svg>