<?xml version="1.0" standalone="no"?><!DOCTYPE svg PUBLIC "-//W3C//DTD SVG 1.1//EN" "http://www.w3.org/Graphics/SVG/1.1/DTD/svg11.dtd"><svg class="icon" width="200px" height="200.00px" viewBox="0 0 1024 1024" version="1.1" xmlns="http://www.w3.org/2000/svg"><path fill="" d="M691.2 614.4c-46.08 0-84.48 23.04-107.52 58.88l-138.24-79.36c7.68-17.92 15.36-35.84 15.36-58.88 0-12.8-2.56-25.6-5.12-35.84l143.36-81.92c23.04 25.6 56.32 40.96 94.72 40.96 71.68 0 128-56.32 128-128s-56.32-128-128-128-128 56.32-128 128c0 12.8 2.56 25.6 5.12 35.84l-143.36 81.92c-23.04-25.6-56.32-40.96-94.72-40.96-71.68 0-128 56.32-128 128s56.32 128 128 128c28.16 0 56.32-10.24 76.8-25.6l156.16 89.6c0 5.12-2.56 10.24-2.56 12.8 0 71.68 56.32 128 128 128s128-56.32 128-128-56.32-125.44-128-125.44z m0-358.4c43.52 0 76.8 33.28 76.8 76.8s-33.28 76.8-76.8 76.8-76.8-33.28-76.8-76.8 33.28-76.8 76.8-76.8zM332.8 614.4c-43.52 0-76.8-33.28-76.8-76.8s33.28-76.8 76.8-76.8 76.8 33.28 76.8 76.8-33.28 76.8-76.8 76.8z m358.4 204.8c-43.52 0-76.8-33.28-76.8-76.8s33.28-76.8 76.8-76.8 76.8 33.28 76.8 76.8-33.28 76.8-76.8 76.8z" /></svg>